<?xml version="1.0" encoding="UTF-8"?>
<svg width="160px" height="20px" viewBox="0 0 160 20" version="1.1" xmlns="http://www.w3.org/2000/svg" xmlns:xlink="http://www.w3.org/1999/xlink">
    <!-- Generator: Sketch 52.6 (67491) - http://www.bohemiancoding.com/sketch -->
    <title>mobilemarkup-logo</title>
    <desc>Created with Sketch.</desc>
    <g id="Page-1" stroke="none" stroke-width="1" fill="none" fill-rule="evenodd">
        <g id="mobilemarkup-logo" fill="#000000" fill-rule="nonzero">
            <path d="M15.4211548,19.5334796 C15.0277811,19.9297952 14.3930565,19.9297952 13.9996828,19.5334796 L4.82699333,10.2237814 C4.63843378,10.0329669 4.53245551,9.77382966 4.53245551,9.50357987 C4.53245551,9.23333008 4.63843378,8.97419283 4.82699333,8.7833783 L8.37273881,5.18237047 C8.76533709,4.78632226 9.39934558,4.78632226 9.79194384,5.18237047 L18.9691674,14.4943696 C19.3593871,14.892832 19.3593871,15.5363104 18.9691674,15.9347728 L15.4211548,19.5334796 Z M5.77010722,19.317189 C5.67052156,19.4189215 5.53506396,19.4761299 5.3937685,19.4761299 C5.25247304,19.4761299 5.11701544,19.4189215 5.01742978,19.317189 L0.152231696,14.3793214 C-0.0507438988,14.1654551 -0.0507438988,13.826967 0.152231696,13.6131006 L2.03392528,11.7033009 C2.23796434,11.4962142 2.57802944,11.4962142 2.7866027,11.7033009 L7.65180079,16.6434695 C7.85583986,16.8551581 7.85583986,17.1957008 7.65180079,17.4073893 L5.77010722,19.317189 Z M36.0268331,11.2546131 L25.171955,0.232998045 C25.0267279,0.0839042237 24.8287512,0 24.622183,0 C24.4156149,0 24.2176382,0.0839042237 24.0724111,0.232998045 L16.774614,7.63289656 C16.4710499,7.94109043 16.4710499,8.44067 16.774614,8.74886385 L27.6340264,19.7704789 C27.9355507,20.076507 28.4275115,20.076507 28.7290359,19.7704789 L36.0291002,12.3613765 C36.3236333,12.051226 36.3236333,11.5601617 36.0291002,11.2500111 L36.0268331,11.2546131 Z M30.6039282,15.226076 C29.9778856,15.226076 29.4703778,14.7109878 29.4703778,14.0755942 C29.4703778,13.4402008 29.9778856,12.9251126 30.6039282,12.9251126 C31.2299708,12.9251126 31.7374785,13.4402008 31.7374785,14.0755942 C31.7374785,14.7109878 31.2299708,15.226076 30.6039282,15.226076 Z" id="Shape" fill-opacity="0.9"></path>
            <path d="M49.1535904,7.44939873 C49.192443,7.43120604 49.2315795,7.41340646 49.271,7.396 C49.7330023,7.19199898 50.2129975,7.03600054 50.711,6.928 C51.2090025,6.81999946 51.6979976,6.766 52.178,6.766 C53.0300043,6.766 53.7199974,6.88299883 54.248,7.117 C54.7760026,7.35100117 55.1689987,7.71099757 55.427,8.197 C55.6850013,8.68300243 55.814,9.29199634 55.814,10.024 L55.814,16 L53.924,16 L53.924,10.276 C53.924,10.0479989 53.8970003,9.82300111 53.843,9.601 C53.7889997,9.37899889 53.6870008,9.17500093 53.537,8.989 C53.3869993,8.80299907 53.1710014,8.65600054 52.889,8.548 C52.6069986,8.43999946 52.2380023,8.386 51.782,8.386 C51.4579984,8.386 51.1340016,8.43399952 50.81,8.53 C50.5427217,8.60919358 50.2836127,8.72513324 50.0326677,8.87782149 C50.1188895,9.21877431 50.162,9.60083263 50.162,10.024 L50.162,16 L48.272,16 L48.272,10.276 C48.272,10.0479989 48.2450003,9.82300111 48.191,9.601 C48.1369997,9.37899889 48.0350008,9.17500093 47.885,8.989 C47.7349993,8.80299907 47.5190014,8.65600054 47.237,8.548 C46.9549986,8.43999946 46.5860023,8.386 46.13,8.386 C45.8059984,8.386 45.4820016,8.4159997 45.158,8.476 C44.8339984,8.5360003 44.5220015,8.61999946 44.222,8.728 L44.222,16 L42.332,16 L42.332,7.702 C42.5960013,7.56999934 42.8929983,7.44700057 43.223,7.333 C43.5530016,7.21899943 43.9039981,7.12000042 44.276,7.036 C44.6480019,6.95199958 45.0259981,6.88600024 45.41,6.838 C45.7940019,6.78999976 46.1659982,6.766 46.526,6.766 C47.3780043,6.766 48.0679974,6.88299883 48.596,7.117 C48.8025167,7.20852445 48.9883799,7.31932382 49.1535904,7.44939873 Z M62.3497897,16.27 C60.8857824,16.27 59.7967932,15.8560041 59.0827897,15.028 C58.3687861,14.1999959 58.0117897,13.0180077 58.0117897,11.482 C58.0117897,9.84999184 58.380786,8.65300381 59.1187897,7.891 C59.8567934,7.12899619 60.9217827,6.748 62.3137897,6.748 C63.3097947,6.748 64.1317864,6.93099817 64.7797897,7.297 C65.4277929,7.66300183 65.9077881,8.19999646 66.2197897,8.908 C66.5317912,9.61600354 66.6877897,10.473995 66.6877897,11.482 C66.6877897,13.0060076 66.3127934,14.1849958 65.5627897,15.019 C64.8127859,15.8530042 63.7417966,16.27 62.3497897,16.27 Z M62.3317897,14.668 C62.9437927,14.668 63.4297879,14.5330013 63.7897897,14.263 C64.1497915,13.9929987 64.4107889,13.6180024 64.5727897,13.138 C64.7347905,12.6579976 64.8157897,12.1060031 64.8157897,11.482 C64.8157897,10.7859965 64.7317905,10.2040023 64.5637897,9.736 C64.3957888,9.26799766 64.1317915,8.91700117 63.7717897,8.683 C63.4117879,8.44899883 62.9317927,8.332 62.3317897,8.332 C61.7317867,8.332 61.2517915,8.45799874 60.8917897,8.71 C60.5317879,8.96200126 60.2737905,9.32199766 60.1177897,9.79 C59.9617889,10.2580023 59.8837897,10.8219967 59.8837897,11.482 C59.8837897,12.478005 60.0697878,13.2579972 60.4417897,13.822 C60.8137915,14.3860028 61.4437852,14.668 62.3317897,14.668 Z M70.7557831,7.31362164 C70.8703665,7.25865162 70.9933663,7.20811115 71.1247831,7.162 C71.4667848,7.0419994 71.8147813,6.94600036 72.1687831,6.874 C72.5227849,6.80199964 72.8257818,6.766 73.0777831,6.766 C74.4457899,6.766 75.4717797,7.17099595 76.1557831,7.981 C76.8397865,8.79100405 77.1817831,9.92799268 77.1817831,11.392 C77.1817831,12.3760049 77.0527844,13.1859968 76.7947831,13.822 C76.5367818,14.4580032 76.1947852,14.9529982 75.7687831,15.307 C75.342781,15.6610018 74.8627858,15.9099993 74.3287831,16.054 C73.7947804,16.1980007 73.2517858,16.27 72.6997831,16.27 C72.2077806,16.27 71.7337854,16.2400003 71.2777831,16.18 C70.8217808,16.1199997 70.4137849,16.0150007 70.0537831,15.865 C69.6937813,15.7149992 69.4087841,15.5080013 69.1987831,15.244 C68.988782,14.9799987 68.8837831,14.6380021 68.8837831,14.218 L68.8837831,3.346 L70.7557831,3.346 L70.7557831,7.31362164 Z M72.6097831,14.632 C73.3177866,14.632 73.8637812,14.4880014 74.2477831,14.2 C74.631785,13.9119986 74.8957824,13.5310024 75.0397831,13.057 C75.1837838,12.5829976 75.2557831,12.0520029 75.2557831,11.464 C75.2557831,10.7919966 75.165784,10.2280023 74.9857831,9.772 C74.8057822,9.31599772 74.5357849,8.9680012 74.1757831,8.728 C73.8157813,8.4879988 73.3537859,8.368 72.7897831,8.368 C72.4777815,8.368 72.1387849,8.40999958 71.7727831,8.494 C71.4067813,8.57800042 71.0677846,8.7099991 70.7557831,8.89 L70.7557831,13.75 C70.7557831,13.9900012 70.8517821,14.1759993 71.0437831,14.308 C71.235784,14.4400007 71.4727817,14.5269998 71.7547831,14.569 C72.0367845,14.6110002 72.3217816,14.632 72.6097831,14.632 Z M79.428173,16 L79.428173,7.018 L81.318173,7.018 L81.336173,16 L79.428173,16 Z M79.374173,5.524 L79.374173,3.814 L81.390173,3.814 L81.390173,5.524 L79.374173,5.524 Z M85.9225585,16 L84.0505585,16 L84.0505585,3.544 L85.9225585,3.544 L85.9225585,16 Z M90.072637,10.51 L94.4478216,10.51 C94.3738953,9.81351923 94.192537,9.28852309 93.9037435,8.935 C93.5557418,8.50899787 93.0097473,8.296 92.2657435,8.296 C91.7857411,8.296 91.3777452,8.39499901 91.0417435,8.593 C90.7057419,8.79100099 90.4507444,9.12699763 90.2767435,9.601 C90.1839815,9.85369656 90.1159461,10.1566956 90.072637,10.51 Z M90.026308,11.914 C90.0766765,12.7460393 90.3071534,13.3910341 90.7177435,13.849 C91.1857459,14.3710026 91.875739,14.632 92.7877435,14.632 C93.1957456,14.632 93.5767418,14.5960004 93.9307435,14.524 C94.2847453,14.4519996 94.611742,14.3590006 94.9117435,14.245 C95.211745,14.1309994 95.4697425,14.0200005 95.6857435,13.912 L95.6857435,15.658 C95.2657414,15.8380009 94.7917462,15.9849994 94.2637435,16.099 C93.7357409,16.2130006 93.1417468,16.27 92.4817435,16.27 C91.5937391,16.27 90.8227468,16.0900018 90.1687435,15.73 C89.5147403,15.3699982 89.0107453,14.8360035 88.6567435,14.128 C88.3027418,13.4199965 88.1257435,12.5560051 88.1257435,11.536 C88.1257435,9.96399214 88.4947398,8.77300405 89.2327435,7.963 C89.9707472,7.15299595 90.9997369,6.748 92.3197435,6.748 C93.2917484,6.748 94.0777405,6.96399784 94.6777435,7.396 C95.2777465,7.82800216 95.7127422,8.43099613 95.9827435,9.205 C96.2527449,9.97900387 96.3817436,10.8819948 96.3697435,11.914 L90.026308,11.914 Z M104.487309,9.56840131 L108.363139,3.994 L110.397139,3.994 L110.397139,16 L108.417139,16 L108.417139,6.83509449 L104.403139,12.382 L100.569139,6.86864463 L100.569139,16 L98.6431389,16 L98.6431389,3.994 L100.713139,3.994 L104.487309,9.56840131 Z M118.71492,12.230613 C118.543564,12.1578825 118.351564,12.091345 118.13892,12.031 C117.694918,11.9049994 117.214922,11.842 116.69892,11.842 C116.014916,11.842 115.495922,11.9619988 115.14192,12.202 C114.787918,12.4420012 114.61092,12.8019976 114.61092,13.282 C114.61092,13.6420018 114.712919,13.9329989 114.91692,14.155 C115.120921,14.3770011 115.375918,14.5389995 115.68192,14.641 C115.987921,14.7430005 116.308918,14.794 116.64492,14.794 C117.352923,14.794 117.874918,14.7460005 118.21092,14.65 C118.546921,14.5539995 118.71492,14.3320017 118.71492,13.984 L118.71492,12.230613 Z M118.71492,11.055152 L118.71492,10.204 C118.71492,9.56799682 118.522922,9.10300147 118.13892,8.809 C117.754918,8.51499853 117.208923,8.368 116.50092,8.368 C115.996917,8.368 115.474922,8.44899919 114.93492,8.611 C114.394917,8.77300081 113.950922,8.99799856 113.60292,9.286 L113.60292,7.522 C113.938921,7.29399886 114.427917,7.11100069 115.06992,6.973 C115.711923,6.83499931 116.374916,6.766 117.05892,6.766 C117.394921,6.766 117.733918,6.79899967 118.07592,6.865 C118.417922,6.93100033 118.738918,7.03299931 119.03892,7.171 C119.338921,7.30900069 119.605919,7.49499883 119.83992,7.729 C120.073921,7.96300117 120.256919,8.24799832 120.38892,8.584 C120.52092,8.92000168 120.58692,9.31599772 120.58692,9.772 L120.58692,14.092 C120.58692,14.6800029 120.403922,15.1329984 120.03792,15.451 C119.671918,15.7690016 119.176923,15.9849994 118.55292,16.099 C117.928917,16.2130006 117.220924,16.27 116.42892,16.27 C115.960917,16.27 115.510922,16.2250004 115.07892,16.135 C114.646918,16.0449995 114.253922,15.8920011 113.89992,15.676 C113.545918,15.4599989 113.263921,15.1630019 113.05392,14.785 C112.843919,14.4069981 112.73892,13.9360028 112.73892,13.372 C112.73892,12.6999966 112.870918,12.1480022 113.13492,11.716 C113.398921,11.2839978 113.776917,10.9600011 114.26892,10.744 C114.760922,10.5279989 115.348916,10.42 116.03292,10.42 C116.488922,10.42 116.899918,10.4559996 117.26592,10.528 C117.631922,10.6000004 117.961918,10.6989994 118.25592,10.825 C118.42355,10.8968414 118.576549,10.9735584 118.71492,11.055152 Z M123.259914,16 L123.259914,7.792 C123.415915,7.69599952 123.703912,7.56400084 124.123914,7.396 C124.543916,7.22799916 125.041911,7.08100063 125.617914,6.955 C126.193917,6.82899937 126.775911,6.766 127.363914,6.766 C127.663916,6.766 127.909913,6.78999976 128.101914,6.838 C128.293915,6.88600024 128.455914,6.9399997 128.587914,7 L128.587914,8.512 C128.311913,8.47599982 128.023916,8.44900009 127.723914,8.431 C127.423913,8.41299991 127.123916,8.41299991 126.823914,8.431 C126.523913,8.44900009 126.229916,8.47599982 125.941914,8.512 C125.653913,8.54800018 125.389916,8.58399982 125.149914,8.62 L125.149914,16 L123.259914,16 Z M133.810978,10.8816753 L138.378098,16 L135.948098,16 L132.31794,11.9576838 L132.312098,16 L130.440098,16 L130.440098,3.544 L132.330098,3.544 L132.320269,10.3460001 L135.606098,6.964 L137.928098,6.964 L133.810978,10.8816753 Z M144.228074,16.27 C143.40007,16.27 142.689077,16.1350013 142.095074,15.865 C141.501071,15.5949987 141.042076,15.1900027 140.718074,14.65 C140.394072,14.1099973 140.232074,13.438004 140.232074,12.634 L140.232074,6.964 L142.122074,6.964 L142.122074,12.364 C142.122074,13.1320038 142.293072,13.6989982 142.635074,14.065 C142.977076,14.4310018 143.50807,14.614 144.228074,14.614 C144.948078,14.614 145.479072,14.4310018 145.821074,14.065 C146.163076,13.6989982 146.334074,13.1320038 146.334074,12.364 L146.334074,6.964 L148.152074,6.964 L148.152074,12.634 C148.152074,13.834006 147.807078,14.7399969 147.117074,15.352 C146.427071,15.9640031 145.46408,16.27 144.228074,16.27 Z M152.686267,15.757221 L152.686267,19.618 L150.814267,19.618 L150.814267,8.71 C150.814267,8.33799814 150.931266,8.02600126 151.165267,7.774 C151.399268,7.52199874 151.708265,7.32100075 152.092267,7.171 C152.476269,7.02099925 152.899265,6.91300033 153.361267,6.847 C153.823269,6.78099967 154.282265,6.748 154.738267,6.748 C155.542271,6.748 156.274264,6.8979985 156.934267,7.198 C157.59427,7.4980015 158.122265,8.00499643 158.518267,8.719 C158.914269,9.43300357 159.112267,10.4079938 159.112267,11.644 C159.112267,12.5800047 158.950268,13.3929965 158.626267,14.083 C158.302265,14.7730035 157.82827,15.3069981 157.204267,15.685 C156.580264,16.0630019 155.824271,16.252 154.936267,16.252 C154.708266,16.252 154.426269,16.2250003 154.090267,16.171 C153.754265,16.1169997 153.418269,16.0330006 153.082267,15.919 C152.943057,15.871768 152.811057,15.8178418 152.686267,15.757221 Z M154.594267,14.668 C155.17027,14.668 155.650265,14.5480012 156.034267,14.308 C156.418269,14.0679988 156.706266,13.7200023 156.898267,13.264 C157.090268,12.8079977 157.186267,12.2560032 157.186267,11.608 C157.186267,11.007997 157.117268,10.4620025 156.979267,9.97 C156.841266,9.47799754 156.592269,9.09100141 156.232267,8.809 C155.872265,8.52699859 155.35627,8.386 154.684267,8.386 C154.084264,8.386 153.601269,8.44899937 153.235267,8.575 C152.869265,8.70100063 152.686267,8.8839988 152.686267,9.124 L152.686267,14.146 C152.998268,14.3140008 153.316265,14.4429995 153.640267,14.533 C153.964268,14.6230004 154.282265,14.668 154.594267,14.668 Z" id="mobilemarkup-logo-a"></path>
        </g>
    </g>
</svg>