<svg width="939" height="2078" viewBox="0 0 939 2078" fill="none" xmlns="http://www.w3.org/2000/svg">
<g clip-path="url(#clip0_1_4)">
<path fill-rule="evenodd" clip-rule="evenodd" d="M939 0H0V2078H939V0ZM212.879 462.927C212.809 481.225 227.933 495.933 246.75 495.865L417.044 494.69C435.837 494.499 451.17 479.589 451.367 461.314L454.578 32.8858C454.66 14.6115 439.553 -0.0796107 420.761 0.000332673L250.466 1.28088C241.426 1.33314 232.726 4.88209 226.286 11.1443C219.847 17.4064 216.197 25.8668 216.144 34.6576L212.879 462.927ZM9.18123 262.184C12.5481 265.458 17.139 267.271 21.936 267.221L112.281 266.57C122.187 266.393 130.301 258.502 130.484 248.869L132.27 21.6612C132.235 12.0296 124.132 4.1497 114.335 4.22032L23.9904 4.87162C14.0577 5.12398 5.99214 12.9673 5.73263 22.6263L4.00103 249.781C3.94987 254.445 5.8144 258.91 9.18123 262.184ZM938.992 274.582L935.019 781.499L935.183 781.445C934.811 795.456 923.11 806.835 908.701 807.197L558.207 809.724C543.73 809.828 532.007 798.428 532.115 784.35L535.98 277.328C536.09 263.153 547.994 251.577 562.571 251.469L912.792 249.104C919.805 249.014 926.522 251.657 931.444 256.444C936.366 261.23 939.085 267.762 938.992 274.582ZM711.571 694.941C696.431 709.664 696.25 733.36 711.168 747.866C726.085 762.373 750.452 762.197 765.592 747.474C780.733 732.751 780.913 709.055 765.996 694.549C751.078 680.042 726.711 680.218 711.571 694.941ZM208.879 1100.85C208.809 1119.15 223.933 1133.86 242.75 1133.79L413.044 1132.62C431.837 1132.42 447.17 1117.51 447.367 1099.24L450.578 670.811C450.66 652.537 435.553 637.846 416.761 637.926L246.466 639.206C237.426 639.258 228.726 642.807 222.286 649.07C215.847 655.332 212.197 663.792 212.144 672.583L208.879 1100.85ZM5.18123 900.109C8.54806 903.383 13.139 905.196 17.936 905.147L108.281 904.495C118.187 904.318 126.301 896.427 126.484 886.794L128.27 659.587C128.235 649.955 120.132 642.075 110.335 642.146L19.9904 642.797C10.0577 643.049 1.99214 650.893 1.73263 660.552L0.00102915 887.706C-0.0501269 892.371 1.8144 896.835 5.18123 900.109ZM934.992 912.507L931.019 1419.42L931.183 1419.37C930.811 1433.38 919.11 1444.76 904.701 1445.12L554.207 1447.65C539.73 1447.75 528.007 1436.35 528.115 1422.28L531.98 915.254C532.09 901.078 543.994 889.502 558.571 889.395L908.792 887.029C915.805 886.939 922.522 889.583 927.444 894.369C932.366 899.156 935.085 905.687 934.992 912.507ZM707.571 1332.87C692.431 1347.59 692.25 1371.29 707.168 1385.79C722.085 1400.3 746.452 1400.12 761.592 1385.4C776.733 1370.68 776.913 1346.98 761.996 1332.47C747.078 1317.97 722.711 1318.14 707.571 1332.87ZM246.75 1763.94C227.933 1764 212.809 1749.3 212.879 1731L216.144 1302.73C216.197 1293.94 219.847 1285.48 226.286 1279.22C232.726 1272.95 241.426 1269.4 250.466 1269.35L420.761 1268.07C439.553 1267.99 454.66 1282.68 454.578 1300.96L451.367 1729.38C451.17 1747.66 435.837 1762.57 417.044 1762.76L246.75 1763.94ZM21.936 1535.29C17.139 1535.34 12.5481 1533.53 9.18123 1530.26C5.8144 1526.98 3.94987 1522.52 4.00103 1517.85L5.73263 1290.7C5.99214 1281.04 14.0577 1273.2 23.9904 1272.94L114.335 1272.29C124.132 1272.22 132.235 1280.1 132.27 1289.73L130.484 1516.94C130.301 1526.57 122.187 1534.46 112.281 1534.64L21.936 1535.29ZM935.019 2049.57L938.992 1542.65C939.085 1535.83 936.366 1529.3 931.444 1524.52C926.522 1519.73 919.805 1517.09 912.792 1517.17L562.571 1519.54C547.994 1519.65 536.09 1531.22 535.98 1545.4L532.115 2052.42C532.007 2066.5 543.73 2077.9 558.207 2077.79L908.701 2075.27C923.11 2074.91 934.811 2063.53 935.183 2049.52L935.019 2049.57ZM711.168 2015.94C696.25 2001.43 696.431 1977.74 711.571 1963.01C726.711 1948.29 751.078 1948.11 765.996 1962.62C780.913 1977.13 780.733 2000.82 765.592 2015.55C750.452 2030.27 726.085 2030.44 711.168 2015.94Z" fill="white"/>
</g>
<defs>
<clipPath id="clip0_1_4">
<rect width="939" height="2078" fill="white"/>
</clipPath>
</defs>
</svg>
